<svg width="606" height="470" viewBox="0 0 606 470" fill="none" xmlns="http://www.w3.org/2000/svg">
<rect x="303" y="235" width="303" height="235" fill="white"/>
<path d="M329.388 420.705L325.986 430.575H322.472L319.056 420.705H321.996L324.236 427.831L326.462 420.705H329.388ZM331.629 421.993C331.144 421.993 330.752 421.863 330.453 421.601C330.164 421.331 330.019 420.995 330.019 420.593C330.019 420.183 330.164 419.842 330.453 419.571C330.752 419.301 331.144 419.165 331.629 419.165C332.105 419.165 332.488 419.301 332.777 419.571C333.076 419.842 333.225 420.183 333.225 420.593C333.225 420.995 333.076 421.331 332.777 421.601C332.488 421.863 332.105 421.993 331.629 421.993ZM332.987 422.721V430.575H330.243V422.721H332.987ZM342.054 426.557C342.054 426.772 342.04 426.987 342.012 427.201H336.818C336.846 427.631 336.962 427.953 337.168 428.167C337.382 428.373 337.653 428.475 337.98 428.475C338.437 428.475 338.764 428.27 338.96 427.859H341.886C341.764 428.401 341.526 428.886 341.172 429.315C340.826 429.735 340.388 430.067 339.856 430.309C339.324 430.552 338.736 430.673 338.092 430.673C337.317 430.673 336.626 430.51 336.02 430.183C335.422 429.857 334.951 429.39 334.606 428.783C334.27 428.177 334.102 427.463 334.102 426.641C334.102 425.82 334.27 425.111 334.606 424.513C334.942 423.907 335.408 423.44 336.006 423.113C336.612 422.787 337.308 422.623 338.092 422.623C338.866 422.623 339.552 422.782 340.15 423.099C340.747 423.417 341.214 423.874 341.55 424.471C341.886 425.059 342.054 425.755 342.054 426.557ZM339.254 425.871C339.254 425.535 339.142 425.274 338.918 425.087C338.694 424.891 338.414 424.793 338.078 424.793C337.742 424.793 337.466 424.887 337.252 425.073C337.037 425.251 336.897 425.517 336.832 425.871H339.254ZM354.783 422.721L352.781 430.575H349.701L348.609 425.815L347.475 430.575H344.409L342.421 422.721H345.151L346.033 427.929L347.195 422.721H350.135L351.339 427.943L352.207 422.721H354.783ZM358.909 430.673C358.2 430.673 357.565 430.557 357.005 430.323C356.455 430.081 356.016 429.754 355.689 429.343C355.372 428.923 355.195 428.452 355.157 427.929H357.817C357.855 428.181 357.971 428.377 358.167 428.517C358.363 428.657 358.606 428.727 358.895 428.727C359.119 428.727 359.297 428.681 359.427 428.587C359.558 428.494 359.623 428.373 359.623 428.223C359.623 428.027 359.516 427.883 359.301 427.789C359.087 427.696 358.732 427.593 358.237 427.481C357.677 427.369 357.211 427.243 356.837 427.103C356.464 426.963 356.137 426.735 355.857 426.417C355.587 426.1 355.451 425.671 355.451 425.129C355.451 424.663 355.577 424.243 355.829 423.869C356.081 423.487 356.45 423.183 356.935 422.959C357.43 422.735 358.023 422.623 358.713 422.623C359.74 422.623 360.547 422.875 361.135 423.379C361.723 423.883 362.064 424.546 362.157 425.367H359.679C359.633 425.115 359.521 424.924 359.343 424.793C359.175 424.653 358.947 424.583 358.657 424.583C358.433 424.583 358.261 424.625 358.139 424.709C358.027 424.793 357.971 424.91 357.971 425.059C357.971 425.246 358.079 425.391 358.293 425.493C358.508 425.587 358.853 425.685 359.329 425.787C359.899 425.909 360.37 426.044 360.743 426.193C361.126 426.343 361.457 426.585 361.737 426.921C362.027 427.248 362.171 427.696 362.171 428.265C362.171 428.723 362.036 429.133 361.765 429.497C361.504 429.861 361.126 430.151 360.631 430.365C360.146 430.571 359.572 430.673 358.909 430.673Z" fill="#4A4A6A"/>
<path d="M303 241.4C303 239.16 303 238.04 303.436 237.184C303.819 236.431 304.431 235.819 305.184 235.436C306.04 235 307.16 235 309.4 235H599.6C601.84 235 602.96 235 603.816 235.436C604.569 235.819 605.181 236.431 605.564 237.184C606 238.04 606 239.16 606 241.4V400H303V241.4Z" fill="#F6F6F9"/>
<rect x="303" y="400.165" width="303" height="1.10849" fill="#F6F6F9"/>
<rect x="518" y="416" width="72" height="16" rx="2" fill="#EAEAEF"/>
<path d="M530.928 420.278L528.189 428H525.835L523.096 420.278H525.098L527.012 426.108L528.937 420.278H530.928ZM533.595 420.278V428H531.714V420.278H533.595ZM536.839 421.785V423.347H539.358V424.799H536.839V426.493H539.688V428H534.958V420.278H539.688V421.785H536.839ZM551.536 420.278L549.523 428H547.246L546.014 422.918L544.738 428H542.461L540.503 420.278H542.516L543.627 425.899L545.002 420.278H547.07L548.39 425.899L549.512 420.278H551.536ZM563.555 420.278V428H561.674V423.369L559.947 428H558.429L556.691 423.358V428H554.81V420.278H557.032L559.199 425.624L561.344 420.278H563.555ZM568.56 428.077C567.834 428.077 567.166 427.908 566.558 427.571C565.956 427.234 565.476 426.764 565.117 426.163C564.765 425.554 564.589 424.872 564.589 424.117C564.589 423.362 564.765 422.683 565.117 422.082C565.476 421.481 565.956 421.011 566.558 420.674C567.166 420.337 567.834 420.168 568.56 420.168C569.286 420.168 569.949 420.337 570.551 420.674C571.159 421.011 571.636 421.481 571.981 422.082C572.333 422.683 572.509 423.362 572.509 424.117C572.509 424.872 572.333 425.554 571.981 426.163C571.629 426.764 571.152 427.234 570.551 427.571C569.949 427.908 569.286 428.077 568.56 428.077ZM568.56 426.361C569.176 426.361 569.667 426.156 570.034 425.745C570.408 425.334 570.595 424.792 570.595 424.117C570.595 423.435 570.408 422.892 570.034 422.489C569.667 422.078 569.176 421.873 568.56 421.873C567.936 421.873 567.438 422.075 567.064 422.478C566.697 422.881 566.514 423.428 566.514 424.117C566.514 424.799 566.697 425.345 567.064 425.756C567.438 426.159 567.936 426.361 568.56 426.361ZM577.493 428L575.887 425.085H575.436V428H573.555V420.278H576.712C577.321 420.278 577.838 420.384 578.263 420.597C578.696 420.81 579.018 421.103 579.231 421.477C579.444 421.844 579.55 422.254 579.55 422.709C579.55 423.222 579.403 423.681 579.11 424.084C578.824 424.487 578.399 424.773 577.834 424.942L579.616 428H577.493ZM575.436 423.754H576.602C576.947 423.754 577.203 423.67 577.372 423.501C577.548 423.332 577.636 423.094 577.636 422.786C577.636 422.493 577.548 422.262 577.372 422.093C577.203 421.924 576.947 421.84 576.602 421.84H575.436V423.754ZM582.612 421.785V423.347H585.131V424.799H582.612V426.493H585.461V428H580.731V420.278H585.461V421.785H582.612Z" fill="#666687"/>
<g clip-path="url(#clip0_185_3878)">
<path d="M303 359.75H606" stroke="#CCCCCC" stroke-dasharray="3 3"/>
<path d="M303 319.5H606" stroke="#CCCCCC" stroke-dasharray="3 3"/>
<path d="M303 279.25H606" stroke="#CCCCCC" stroke-dasharray="3 3"/>
<path d="M303 239H606" stroke="#CCCCCC" stroke-dasharray="3 3"/>
<path d="M303 400H606" stroke="#CCCCCC" stroke-dasharray="3 3"/>
<path d="M363.6 239V400" stroke="#CCCCCC" stroke-dasharray="3 3"/>
<path d="M424.2 239V400" stroke="#CCCCCC" stroke-dasharray="3 3"/>
<path d="M484.8 239V400" stroke="#CCCCCC" stroke-dasharray="3 3"/>
<path d="M545.4 239V400" stroke="#CCCCCC" stroke-dasharray="3 3"/>
<path d="M606 239V400" stroke="#CCCCCC" stroke-dasharray="3 3"/>
<path d="M303 239V400" stroke="#CCCCCC" stroke-dasharray="3 3"/>
<path d="M303 383.9C323.2 372.719 343.4 361.539 363.6 346.333C383.8 331.128 404 292.667 424.2 292.667C444.4 292.667 464.6 319.5 484.8 319.5C505 319.5 525.2 292.667 545.4 279.25C565.6 265.833 585.8 252.417 606 239" stroke="#00A1E4"/>
</g>
<rect x="303" width="303" height="235" fill="white"/>
<path d="M326.546 197.227L325.454 195.589C325.146 195.645 324.833 195.673 324.516 195.673C323.592 195.673 322.743 195.459 321.968 195.029C321.193 194.591 320.577 193.989 320.12 193.223C319.672 192.449 319.448 191.576 319.448 190.605C319.448 189.635 319.672 188.767 320.12 188.001C320.577 187.227 321.193 186.625 321.968 186.195C322.743 185.766 323.592 185.551 324.516 185.551C325.449 185.551 326.299 185.766 327.064 186.195C327.839 186.625 328.45 187.227 328.898 188.001C329.346 188.767 329.57 189.635 329.57 190.605C329.57 191.417 329.407 192.169 329.08 192.859C328.753 193.541 328.305 194.11 327.736 194.567L329.822 197.227H326.546ZM322.248 190.605C322.248 191.38 322.449 191.996 322.85 192.453C323.251 192.901 323.807 193.125 324.516 193.125C325.216 193.125 325.767 192.897 326.168 192.439C326.579 191.982 326.784 191.371 326.784 190.605C326.784 189.821 326.579 189.205 326.168 188.757C325.767 188.3 325.216 188.071 324.516 188.071C323.807 188.071 323.251 188.3 322.85 188.757C322.449 189.205 322.248 189.821 322.248 190.605ZM338.853 187.721V195.575H336.095V194.455C335.862 194.81 335.54 195.099 335.129 195.323C334.719 195.538 334.247 195.645 333.715 195.645C332.801 195.645 332.077 195.347 331.545 194.749C331.023 194.143 330.761 193.321 330.761 192.285V187.721H333.491V191.935C333.491 192.383 333.608 192.738 333.841 192.999C334.084 193.251 334.401 193.377 334.793 193.377C335.195 193.377 335.512 193.251 335.745 192.999C335.979 192.738 336.095 192.383 336.095 191.935V187.721H338.853ZM341.801 186.993C341.316 186.993 340.924 186.863 340.625 186.601C340.336 186.331 340.191 185.995 340.191 185.593C340.191 185.183 340.336 184.842 340.625 184.571C340.924 184.301 341.316 184.165 341.801 184.165C342.277 184.165 342.66 184.301 342.949 184.571C343.248 184.842 343.397 185.183 343.397 185.593C343.397 185.995 343.248 186.331 342.949 186.601C342.66 186.863 342.277 186.993 341.801 186.993ZM343.159 187.721V195.575H340.415V187.721H343.159ZM347.326 193.293H350.672V195.575H344.302V193.405L347.424 190.003H344.33V187.721H350.56V189.891L347.326 193.293ZM354.421 193.293H357.767V195.575H351.397V193.405L354.519 190.003H351.425V187.721H357.655V189.891L354.421 193.293ZM366.417 191.557C366.417 191.772 366.403 191.987 366.375 192.201H361.181C361.209 192.631 361.326 192.953 361.531 193.167C361.746 193.373 362.016 193.475 362.343 193.475C362.8 193.475 363.127 193.27 363.323 192.859H366.249C366.128 193.401 365.89 193.886 365.535 194.315C365.19 194.735 364.751 195.067 364.219 195.309C363.687 195.552 363.099 195.673 362.455 195.673C361.68 195.673 360.99 195.51 360.383 195.183C359.786 194.857 359.314 194.39 358.969 193.783C358.633 193.177 358.465 192.463 358.465 191.641C358.465 190.82 358.633 190.111 358.969 189.513C359.305 188.907 359.772 188.44 360.369 188.113C360.976 187.787 361.671 187.623 362.455 187.623C363.23 187.623 363.916 187.782 364.513 188.099C365.11 188.417 365.577 188.874 365.913 189.471C366.249 190.059 366.417 190.755 366.417 191.557ZM363.617 190.871C363.617 190.535 363.505 190.274 363.281 190.087C363.057 189.891 362.777 189.793 362.441 189.793C362.105 189.793 361.83 189.887 361.615 190.073C361.4 190.251 361.26 190.517 361.195 190.871H363.617ZM370.886 195.673C370.177 195.673 369.542 195.557 368.982 195.323C368.431 195.081 367.993 194.754 367.666 194.343C367.349 193.923 367.171 193.452 367.134 192.929H369.794C369.831 193.181 369.948 193.377 370.144 193.517C370.34 193.657 370.583 193.727 370.872 193.727C371.096 193.727 371.273 193.681 371.404 193.587C371.535 193.494 371.6 193.373 371.6 193.223C371.6 193.027 371.493 192.883 371.278 192.789C371.063 192.696 370.709 192.593 370.214 192.481C369.654 192.369 369.187 192.243 368.814 192.103C368.441 191.963 368.114 191.735 367.834 191.417C367.563 191.1 367.428 190.671 367.428 190.129C367.428 189.663 367.554 189.243 367.806 188.869C368.058 188.487 368.427 188.183 368.912 187.959C369.407 187.735 369.999 187.623 370.69 187.623C371.717 187.623 372.524 187.875 373.112 188.379C373.7 188.883 374.041 189.546 374.134 190.367H371.656C371.609 190.115 371.497 189.924 371.32 189.793C371.152 189.653 370.923 189.583 370.634 189.583C370.41 189.583 370.237 189.625 370.116 189.709C370.004 189.793 369.948 189.91 369.948 190.059C369.948 190.246 370.055 190.391 370.27 190.493C370.485 190.587 370.83 190.685 371.306 190.787C371.875 190.909 372.347 191.044 372.72 191.193C373.103 191.343 373.434 191.585 373.714 191.921C374.003 192.248 374.148 192.696 374.148 193.265C374.148 193.723 374.013 194.133 373.742 194.497C373.481 194.861 373.103 195.151 372.608 195.365C372.123 195.571 371.549 195.673 370.886 195.673ZM380.921 185.705V195.575H378.177V185.705H380.921ZM387.621 187.651C388.527 187.651 389.245 187.955 389.777 188.561C390.309 189.159 390.575 189.971 390.575 190.997V195.575H387.831V191.361C387.831 190.913 387.715 190.563 387.481 190.311C387.248 190.05 386.935 189.919 386.543 189.919C386.133 189.919 385.811 190.05 385.577 190.311C385.344 190.563 385.227 190.913 385.227 191.361V195.575H382.483V187.721H385.227V188.841C385.47 188.487 385.797 188.202 386.207 187.987C386.618 187.763 387.089 187.651 387.621 187.651ZM396.715 193.237V195.575H395.525C393.518 195.575 392.515 194.581 392.515 192.593V190.003H391.549V187.721H392.515V185.817H395.273V187.721H396.701V190.003H395.273V192.635C395.273 192.85 395.32 193.004 395.413 193.097C395.516 193.191 395.684 193.237 395.917 193.237H396.715ZM405.477 191.557C405.477 191.772 405.463 191.987 405.435 192.201H400.241C400.269 192.631 400.386 192.953 400.591 193.167C400.806 193.373 401.077 193.475 401.403 193.475C401.861 193.475 402.187 193.27 402.383 192.859H405.309C405.188 193.401 404.95 193.886 404.595 194.315C404.25 194.735 403.811 195.067 403.279 195.309C402.747 195.552 402.159 195.673 401.515 195.673C400.741 195.673 400.05 195.51 399.443 195.183C398.846 194.857 398.375 194.39 398.029 193.783C397.693 193.177 397.525 192.463 397.525 191.641C397.525 190.82 397.693 190.111 398.029 189.513C398.365 188.907 398.832 188.44 399.429 188.113C400.036 187.787 400.731 187.623 401.515 187.623C402.29 187.623 402.976 187.782 403.573 188.099C404.171 188.417 404.637 188.874 404.973 189.471C405.309 190.059 405.477 190.755 405.477 191.557ZM402.677 190.871C402.677 190.535 402.565 190.274 402.341 190.087C402.117 189.891 401.837 189.793 401.501 189.793C401.165 189.793 400.89 189.887 400.675 190.073C400.461 190.251 400.321 190.517 400.255 190.871H402.677ZM409.344 189.107C409.652 188.659 410.026 188.305 410.464 188.043C410.903 187.782 411.374 187.651 411.878 187.651V190.577H411.108C410.511 190.577 410.068 190.694 409.778 190.927C409.489 191.161 409.344 191.567 409.344 192.145V195.575H406.6V187.721H409.344V189.107ZM412.414 191.641C412.414 190.829 412.559 190.12 412.848 189.513C413.147 188.907 413.548 188.44 414.052 188.113C414.565 187.787 415.135 187.623 415.76 187.623C416.301 187.623 416.768 187.731 417.16 187.945C417.552 188.16 417.855 188.449 418.07 188.813V187.721H420.814V195.575H418.07V194.483C417.855 194.847 417.547 195.137 417.146 195.351C416.754 195.566 416.292 195.673 415.76 195.673C415.135 195.673 414.565 195.51 414.052 195.183C413.548 194.857 413.147 194.39 412.848 193.783C412.559 193.167 412.414 192.453 412.414 191.641ZM418.07 191.641C418.07 191.137 417.93 190.741 417.65 190.451C417.379 190.162 417.043 190.017 416.642 190.017C416.231 190.017 415.891 190.162 415.62 190.451C415.349 190.731 415.214 191.128 415.214 191.641C415.214 192.145 415.349 192.547 415.62 192.845C415.891 193.135 416.231 193.279 416.642 193.279C417.043 193.279 417.379 193.135 417.65 192.845C417.93 192.556 418.07 192.155 418.07 191.641ZM421.93 191.641C421.93 190.829 422.098 190.12 422.434 189.513C422.77 188.907 423.236 188.44 423.834 188.113C424.44 187.787 425.131 187.623 425.906 187.623C426.904 187.623 427.744 187.899 428.426 188.449C429.107 188.991 429.546 189.751 429.742 190.731H426.83C426.662 190.218 426.335 189.961 425.85 189.961C425.504 189.961 425.229 190.106 425.024 190.395C424.828 190.675 424.73 191.091 424.73 191.641C424.73 192.192 424.828 192.612 425.024 192.901C425.229 193.191 425.504 193.335 425.85 193.335C426.344 193.335 426.671 193.079 426.83 192.565H429.742C429.546 193.536 429.107 194.297 428.426 194.847C427.744 195.398 426.904 195.673 425.906 195.673C425.131 195.673 424.44 195.51 423.834 195.183C423.236 194.857 422.77 194.39 422.434 193.783C422.098 193.177 421.93 192.463 421.93 191.641ZM435.516 193.237V195.575H434.326C432.319 195.575 431.316 194.581 431.316 192.593V190.003H430.35V187.721H431.316V185.817H434.074V187.721H435.502V190.003H434.074V192.635C434.074 192.85 434.12 193.004 434.214 193.097C434.316 193.191 434.484 193.237 434.718 193.237H435.516ZM438.16 186.993C437.675 186.993 437.283 186.863 436.984 186.601C436.695 186.331 436.55 185.995 436.55 185.593C436.55 185.183 436.695 184.842 436.984 184.571C437.283 184.301 437.675 184.165 438.16 184.165C438.636 184.165 439.019 184.301 439.308 184.571C439.607 184.842 439.756 185.183 439.756 185.593C439.756 185.995 439.607 186.331 439.308 186.601C439.019 186.863 438.636 186.993 438.16 186.993ZM439.518 187.721V195.575H436.774V187.721H439.518ZM444.735 195.673C443.951 195.673 443.246 195.51 442.621 195.183C442.005 194.857 441.52 194.39 441.165 193.783C440.81 193.177 440.633 192.463 440.633 191.641C440.633 190.829 440.81 190.12 441.165 189.513C441.529 188.907 442.019 188.44 442.635 188.113C443.26 187.787 443.965 187.623 444.749 187.623C445.533 187.623 446.233 187.787 446.849 188.113C447.474 188.44 447.964 188.907 448.319 189.513C448.683 190.12 448.865 190.829 448.865 191.641C448.865 192.453 448.683 193.167 448.319 193.783C447.964 194.39 447.474 194.857 446.849 195.183C446.224 195.51 445.519 195.673 444.735 195.673ZM444.735 193.293C445.118 193.293 445.435 193.153 445.687 192.873C445.948 192.584 446.079 192.173 446.079 191.641C446.079 191.109 445.948 190.703 445.687 190.423C445.435 190.143 445.122 190.003 444.749 190.003C444.376 190.003 444.063 190.143 443.811 190.423C443.559 190.703 443.433 191.109 443.433 191.641C443.433 192.183 443.554 192.593 443.797 192.873C444.04 193.153 444.352 193.293 444.735 193.293ZM455.119 187.651C456.025 187.651 456.743 187.955 457.275 188.561C457.807 189.159 458.073 189.971 458.073 190.997V195.575H455.329V191.361C455.329 190.913 455.213 190.563 454.979 190.311C454.746 190.05 454.433 189.919 454.041 189.919C453.631 189.919 453.309 190.05 453.075 190.311C452.842 190.563 452.725 190.913 452.725 191.361V195.575H449.981V187.721H452.725V188.841C452.968 188.487 453.295 188.202 453.705 187.987C454.116 187.763 454.587 187.651 455.119 187.651Z" fill="#4A4A6A"/>
<path d="M303 6.39999C303 4.15979 303 3.03969 303.436 2.18404C303.819 1.43139 304.431 0.819467 305.184 0.435974C306.04 0 307.16 0 309.4 0H599.6C601.84 0 602.96 0 603.816 0.435974C604.569 0.819467 605.181 1.43139 605.564 2.18404C606 3.03969 606 4.15979 606 6.4V165H303V6.39999Z" fill="#F6F6F9"/>
<rect x="303" y="165.165" width="303" height="1.10849" fill="#F6F6F9"/>
<rect x="518" y="181" width="72" height="16" rx="2" fill="#EAEAEF"/>
<path d="M530.928 185.278L528.189 193H525.835L523.096 185.278H525.098L527.012 191.108L528.937 185.278H530.928ZM533.595 185.278V193H531.714V185.278H533.595ZM536.839 186.785V188.347H539.358V189.799H536.839V191.493H539.688V193H534.958V185.278H539.688V186.785H536.839ZM551.536 185.278L549.523 193H547.246L546.014 187.918L544.738 193H542.461L540.503 185.278H542.516L543.627 190.899L545.002 185.278H547.07L548.39 190.899L549.512 185.278H551.536ZM563.555 185.278V193H561.674V188.369L559.947 193H558.429L556.691 188.358V193H554.81V185.278H557.032L559.199 190.624L561.344 185.278H563.555ZM568.56 193.077C567.834 193.077 567.166 192.908 566.558 192.571C565.956 192.234 565.476 191.764 565.117 191.163C564.765 190.554 564.589 189.872 564.589 189.117C564.589 188.362 564.765 187.683 565.117 187.082C565.476 186.481 565.956 186.011 566.558 185.674C567.166 185.337 567.834 185.168 568.56 185.168C569.286 185.168 569.949 185.337 570.551 185.674C571.159 186.011 571.636 186.481 571.981 187.082C572.333 187.683 572.509 188.362 572.509 189.117C572.509 189.872 572.333 190.554 571.981 191.163C571.629 191.764 571.152 192.234 570.551 192.571C569.949 192.908 569.286 193.077 568.56 193.077ZM568.56 191.361C569.176 191.361 569.667 191.156 570.034 190.745C570.408 190.334 570.595 189.792 570.595 189.117C570.595 188.435 570.408 187.892 570.034 187.489C569.667 187.078 569.176 186.873 568.56 186.873C567.936 186.873 567.438 187.075 567.064 187.478C566.697 187.881 566.514 188.428 566.514 189.117C566.514 189.799 566.697 190.345 567.064 190.756C567.438 191.159 567.936 191.361 568.56 191.361ZM577.493 193L575.887 190.085H575.436V193H573.555V185.278H576.712C577.321 185.278 577.838 185.384 578.263 185.597C578.696 185.81 579.018 186.103 579.231 186.477C579.444 186.844 579.55 187.254 579.55 187.709C579.55 188.222 579.403 188.681 579.11 189.084C578.824 189.487 578.399 189.773 577.834 189.942L579.616 193H577.493ZM575.436 188.754H576.602C576.947 188.754 577.203 188.67 577.372 188.501C577.548 188.332 577.636 188.094 577.636 187.786C577.636 187.493 577.548 187.262 577.372 187.093C577.203 186.924 576.947 186.84 576.602 186.84H575.436V188.754ZM582.612 186.785V188.347H585.131V189.799H582.612V191.493H585.461V193H580.731V185.278H585.461V186.785H582.612Z" fill="#666687"/>
<g clip-path="url(#clip1_185_3878)">
<path d="M303 154.9C323.2 147.192 343.4 139.483 363.6 129C383.8 118.517 404 92 424.2 92C444.4 92 464.6 127.52 484.8 127.52C505 127.52 525.2 93.295 545.4 82.75C565.6 72.205 585.8 68.2275 606 64.25V166C585.8 166 565.6 166 545.4 166C525.2 166 505 166 484.8 166C464.6 166 444.4 166 424.2 166C404 166 383.8 166 363.6 166C343.4 166 323.2 166 303 166V154.9Z" fill="#B7E9FF" fill-opacity="0.6"/>
<path d="M303 154.9C323.2 147.192 343.4 139.483 363.6 129C383.8 118.517 404 92 424.2 92C444.4 92 464.6 127.52 484.8 127.52C505 127.52 525.2 93.295 545.4 82.75C565.6 72.205 585.8 68.2275 606 64.25" stroke="#00A1E4"/>
</g>
<rect width="303" height="235" fill="white"/>
<path d="M19.472 185.705V191.431C19.472 191.963 19.5933 192.374 19.836 192.663C20.088 192.953 20.466 193.097 20.97 193.097C21.474 193.097 21.852 192.953 22.104 192.663C22.3653 192.365 22.496 191.954 22.496 191.431V185.705H25.24V191.431C25.24 192.337 25.0487 193.111 24.666 193.755C24.2833 194.39 23.7607 194.871 23.098 195.197C22.4447 195.515 21.7167 195.673 20.914 195.673C20.1113 195.673 19.3927 195.515 18.758 195.197C18.1327 194.871 17.638 194.39 17.274 193.755C16.9193 193.121 16.742 192.346 16.742 191.431V185.705H19.472ZM29.4948 188.813C29.7095 188.449 30.0128 188.16 30.4048 187.945C30.7968 187.731 31.2588 187.623 31.7908 187.623C32.4161 187.623 32.9808 187.787 33.4848 188.113C33.9981 188.44 34.3995 188.907 34.6888 189.513C34.9875 190.12 35.1368 190.829 35.1368 191.641C35.1368 192.453 34.9875 193.167 34.6888 193.783C34.3995 194.39 33.9981 194.857 33.4848 195.183C32.9808 195.51 32.4161 195.673 31.7908 195.673C31.2588 195.673 30.7968 195.566 30.4048 195.351C30.0221 195.137 29.7188 194.847 29.4948 194.483V199.327H26.7508V187.721H29.4948V188.813ZM32.3508 191.641C32.3508 191.128 32.2108 190.731 31.9308 190.451C31.6601 190.162 31.3241 190.017 30.9228 190.017C30.5215 190.017 30.1808 190.162 29.9008 190.451C29.6301 190.741 29.4948 191.137 29.4948 191.641C29.4948 192.155 29.6301 192.556 29.9008 192.845C30.1808 193.135 30.5215 193.279 30.9228 193.279C31.3241 193.279 31.6601 193.135 31.9308 192.845C32.2108 192.547 32.3508 192.145 32.3508 191.641ZM40.0324 192.985L41.5024 187.721H44.4284L41.7264 195.575H38.3104L35.6084 187.721H38.5344L40.0324 192.985ZM49.0122 195.673C48.2282 195.673 47.5236 195.51 46.8982 195.183C46.2822 194.857 45.7969 194.39 45.4422 193.783C45.0876 193.177 44.9102 192.463 44.9102 191.641C44.9102 190.829 45.0876 190.12 45.4422 189.513C45.8062 188.907 46.2962 188.44 46.9122 188.113C47.5376 187.787 48.2422 187.623 49.0262 187.623C49.8102 187.623 50.5102 187.787 51.1262 188.113C51.7516 188.44 52.2416 188.907 52.5962 189.513C52.9602 190.12 53.1422 190.829 53.1422 191.641C53.1422 192.453 52.9602 193.167 52.5962 193.783C52.2416 194.39 51.7516 194.857 51.1262 195.183C50.5009 195.51 49.7962 195.673 49.0122 195.673ZM49.0122 193.293C49.3949 193.293 49.7122 193.153 49.9642 192.873C50.2256 192.584 50.3562 192.173 50.3562 191.641C50.3562 191.109 50.2256 190.703 49.9642 190.423C49.7122 190.143 49.3996 190.003 49.0262 190.003C48.6529 190.003 48.3402 190.143 48.0882 190.423C47.8362 190.703 47.7102 191.109 47.7102 191.641C47.7102 192.183 47.8316 192.593 48.0742 192.873C48.3169 193.153 48.6296 193.293 49.0122 193.293ZM58.8926 193.237V195.575H57.7026C55.6959 195.575 54.6926 194.581 54.6926 192.593V190.003H53.7266V187.721H54.6926V185.817H57.4506V187.721H58.8786V190.003H57.4506V192.635C57.4506 192.85 57.4973 193.004 57.5906 193.097C57.6933 193.191 57.8613 193.237 58.0946 193.237H58.8926ZM67.6552 191.557C67.6552 191.772 67.6412 191.987 67.6132 192.201H62.4192C62.4472 192.631 62.5639 192.953 62.7692 193.167C62.9839 193.373 63.2545 193.475 63.5812 193.475C64.0385 193.475 64.3652 193.27 64.5612 192.859H67.4872C67.3659 193.401 67.1279 193.886 66.7732 194.315C66.4279 194.735 65.9892 195.067 65.4572 195.309C64.9252 195.552 64.3372 195.673 63.6932 195.673C62.9185 195.673 62.2279 195.51 61.6212 195.183C61.0239 194.857 60.5525 194.39 60.2072 193.783C59.8712 193.177 59.7032 192.463 59.7032 191.641C59.7032 190.82 59.8712 190.111 60.2072 189.513C60.5432 188.907 61.0099 188.44 61.6072 188.113C62.2139 187.787 62.9092 187.623 63.6932 187.623C64.4679 187.623 65.1539 187.782 65.7512 188.099C66.3485 188.417 66.8152 188.874 67.1512 189.471C67.4872 190.059 67.6552 190.755 67.6552 191.557ZM64.8552 190.871C64.8552 190.535 64.7432 190.274 64.5192 190.087C64.2952 189.891 64.0152 189.793 63.6792 189.793C63.3432 189.793 63.0679 189.887 62.8532 190.073C62.6385 190.251 62.4985 190.517 62.4332 190.871H64.8552ZM72.1241 195.673C71.4148 195.673 70.7801 195.557 70.2201 195.323C69.6695 195.081 69.2308 194.754 68.9041 194.343C68.5868 193.923 68.4095 193.452 68.3721 192.929H71.0321C71.0695 193.181 71.1861 193.377 71.3821 193.517C71.5781 193.657 71.8208 193.727 72.1101 193.727C72.3341 193.727 72.5115 193.681 72.6421 193.587C72.7728 193.494 72.8381 193.373 72.8381 193.223C72.8381 193.027 72.7308 192.883 72.5161 192.789C72.3015 192.696 71.9468 192.593 71.4521 192.481C70.8921 192.369 70.4255 192.243 70.0521 192.103C69.6788 191.963 69.3521 191.735 69.0721 191.417C68.8015 191.1 68.6661 190.671 68.6661 190.129C68.6661 189.663 68.7921 189.243 69.0441 188.869C69.2961 188.487 69.6648 188.183 70.1501 187.959C70.6448 187.735 71.2375 187.623 71.9281 187.623C72.9548 187.623 73.7621 187.875 74.3501 188.379C74.9381 188.883 75.2788 189.546 75.3721 190.367H72.8941C72.8475 190.115 72.7355 189.924 72.5581 189.793C72.3901 189.653 72.1615 189.583 71.8721 189.583C71.6481 189.583 71.4755 189.625 71.3541 189.709C71.2421 189.793 71.1861 189.91 71.1861 190.059C71.1861 190.246 71.2935 190.391 71.5081 190.493C71.7228 190.587 72.0681 190.685 72.5441 190.787C73.1135 190.909 73.5848 191.044 73.9581 191.193C74.3408 191.343 74.6721 191.585 74.9521 191.921C75.2415 192.248 75.3861 192.696 75.3861 193.265C75.3861 193.723 75.2508 194.133 74.9801 194.497C74.7188 194.861 74.3408 195.151 73.8461 195.365C73.3608 195.571 72.7868 195.673 72.1241 195.673ZM82.1532 182.247L78.4152 198.277H75.7692L79.5072 182.247H82.1532ZM86.6021 185.705C87.6381 185.705 88.5434 185.915 89.3181 186.335C90.1021 186.746 90.7041 187.325 91.1241 188.071C91.5441 188.818 91.7541 189.672 91.7541 190.633C91.7541 191.585 91.5394 192.435 91.1101 193.181C90.6901 193.928 90.0881 194.516 89.3041 194.945C88.5294 195.365 87.6288 195.575 86.6021 195.575H82.6961V185.705H86.6021ZM86.3921 193.153C87.1948 193.153 87.8248 192.934 88.2821 192.495C88.7394 192.057 88.9681 191.436 88.9681 190.633C88.9681 189.821 88.7394 189.196 88.2821 188.757C87.8248 188.309 87.1948 188.085 86.3921 188.085H85.4401V193.153H86.3921ZM96.645 195.673C95.861 195.673 95.1564 195.51 94.531 195.183C93.915 194.857 93.4297 194.39 93.075 193.783C92.7204 193.177 92.543 192.463 92.543 191.641C92.543 190.829 92.7204 190.12 93.075 189.513C93.439 188.907 93.929 188.44 94.545 188.113C95.1704 187.787 95.875 187.623 96.659 187.623C97.443 187.623 98.143 187.787 98.759 188.113C99.3844 188.44 99.8744 188.907 100.229 189.513C100.593 190.12 100.775 190.829 100.775 191.641C100.775 192.453 100.593 193.167 100.229 193.783C99.8744 194.39 99.3844 194.857 98.759 195.183C98.1337 195.51 97.429 195.673 96.645 195.673ZM96.645 193.293C97.0277 193.293 97.345 193.153 97.597 192.873C97.8584 192.584 97.989 192.173 97.989 191.641C97.989 191.109 97.8584 190.703 97.597 190.423C97.345 190.143 97.0324 190.003 96.659 190.003C96.2857 190.003 95.973 190.143 95.721 190.423C95.469 190.703 95.343 191.109 95.343 191.641C95.343 192.183 95.4644 192.593 95.707 192.873C95.9497 193.153 96.2624 193.293 96.645 193.293ZM113.497 187.721L111.495 195.575H108.415L107.323 190.815L106.189 195.575H103.123L101.135 187.721H103.865L104.747 192.929L105.909 187.721H108.849L110.053 192.943L110.921 187.721H113.497ZM119.416 187.651C120.321 187.651 121.04 187.955 121.572 188.561C122.104 189.159 122.37 189.971 122.37 190.997V195.575H119.626V191.361C119.626 190.913 119.509 190.563 119.276 190.311C119.043 190.05 118.73 189.919 118.338 189.919C117.927 189.919 117.605 190.05 117.372 190.311C117.139 190.563 117.022 190.913 117.022 191.361V195.575H114.278V187.721H117.022V188.841C117.265 188.487 117.591 188.202 118.002 187.987C118.413 187.763 118.884 187.651 119.416 187.651ZM127.642 192.985L129.112 187.721H132.038L129.336 195.575H125.92L123.218 187.721H126.144L127.642 192.985ZM136.622 195.673C135.838 195.673 135.133 195.51 134.508 195.183C133.892 194.857 133.406 194.39 133.052 193.783C132.697 193.177 132.52 192.463 132.52 191.641C132.52 190.829 132.697 190.12 133.052 189.513C133.416 188.907 133.906 188.44 134.522 188.113C135.147 187.787 135.852 187.623 136.636 187.623C137.42 187.623 138.12 187.787 138.736 188.113C139.361 188.44 139.851 188.907 140.206 189.513C140.57 190.12 140.752 190.829 140.752 191.641C140.752 192.453 140.57 193.167 140.206 193.783C139.851 194.39 139.361 194.857 138.736 195.183C138.11 195.51 137.406 195.673 136.622 195.673ZM136.622 193.293C137.004 193.293 137.322 193.153 137.574 192.873C137.835 192.584 137.966 192.173 137.966 191.641C137.966 191.109 137.835 190.703 137.574 190.423C137.322 190.143 137.009 190.003 136.636 190.003C136.262 190.003 135.95 190.143 135.698 190.423C135.446 190.703 135.32 191.109 135.32 191.641C135.32 192.183 135.441 192.593 135.684 192.873C135.926 193.153 136.239 193.293 136.622 193.293ZM146.502 193.237V195.575H145.312C143.305 195.575 142.302 194.581 142.302 192.593V190.003H141.336V187.721H142.302V185.817H145.06V187.721H146.488V190.003H145.06V192.635C145.06 192.85 145.107 193.004 145.2 193.097C145.303 193.191 145.471 193.237 145.704 193.237H146.502ZM155.265 191.557C155.265 191.772 155.251 191.987 155.223 192.201H150.029C150.057 192.631 150.173 192.953 150.379 193.167C150.593 193.373 150.864 193.475 151.191 193.475C151.648 193.475 151.975 193.27 152.171 192.859H155.097C154.975 193.401 154.737 193.886 154.383 194.315C154.037 194.735 153.599 195.067 153.067 195.309C152.535 195.552 151.947 195.673 151.303 195.673C150.528 195.673 149.837 195.51 149.231 195.183C148.633 194.857 148.162 194.39 147.817 193.783C147.481 193.177 147.313 192.463 147.313 191.641C147.313 190.82 147.481 190.111 147.817 189.513C148.153 188.907 148.619 188.44 149.217 188.113C149.823 187.787 150.519 187.623 151.303 187.623C152.077 187.623 152.763 187.782 153.361 188.099C153.958 188.417 154.425 188.874 154.761 189.471C155.097 190.059 155.265 190.755 155.265 191.557ZM152.465 190.871C152.465 190.535 152.353 190.274 152.129 190.087C151.905 189.891 151.625 189.793 151.289 189.793C150.953 189.793 150.677 189.887 150.463 190.073C150.248 190.251 150.108 190.517 150.043 190.871H152.465ZM159.734 195.673C159.024 195.673 158.39 195.557 157.83 195.323C157.279 195.081 156.84 194.754 156.514 194.343C156.196 193.923 156.019 193.452 155.982 192.929H158.642C158.679 193.181 158.796 193.377 158.992 193.517C159.188 193.657 159.43 193.727 159.72 193.727C159.944 193.727 160.121 193.681 160.252 193.587C160.382 193.494 160.448 193.373 160.448 193.223C160.448 193.027 160.34 192.883 160.126 192.789C159.911 192.696 159.556 192.593 159.062 192.481C158.502 192.369 158.035 192.243 157.662 192.103C157.288 191.963 156.962 191.735 156.682 191.417C156.411 191.1 156.276 190.671 156.276 190.129C156.276 189.663 156.402 189.243 156.654 188.869C156.906 188.487 157.274 188.183 157.76 187.959C158.254 187.735 158.847 187.623 159.538 187.623C160.564 187.623 161.372 187.875 161.96 188.379C162.548 188.883 162.888 189.546 162.982 190.367H160.504C160.457 190.115 160.345 189.924 160.168 189.793C160 189.653 159.771 189.583 159.482 189.583C159.258 189.583 159.085 189.625 158.964 189.709C158.852 189.793 158.796 189.91 158.796 190.059C158.796 190.246 158.903 190.391 159.118 190.493C159.332 190.587 159.678 190.685 160.154 190.787C160.723 190.909 161.194 191.044 161.568 191.193C161.95 191.343 162.282 191.585 162.562 191.921C162.851 192.248 162.996 192.696 162.996 193.265C162.996 193.723 162.86 194.133 162.59 194.497C162.328 194.861 161.95 195.151 161.456 195.365C160.97 195.571 160.396 195.673 159.734 195.673Z" fill="#4A4A6A"/>
<path d="M0 6.39999C0 4.15979 0 3.03969 0.435974 2.18404C0.819467 1.43139 1.43139 0.819467 2.18404 0.435974C3.03969 0 4.15979 0 6.4 0H296.6C298.84 0 299.96 0 300.816 0.435974C301.569 0.819467 302.181 1.43139 302.564 2.18404C303 3.03969 303 4.15979 303 6.4V165H0V6.39999Z" fill="#F6F6F9"/>
<rect y="165.165" width="303" height="1.10849" fill="#F6F6F9"/>
<rect x="215" y="181" width="72" height="16" rx="2" fill="#EAEAEF"/>
<path d="M227.928 185.278L225.189 193H222.835L220.096 185.278H222.098L224.012 191.108L225.937 185.278H227.928ZM230.595 185.278V193H228.714V185.278H230.595ZM233.839 186.785V188.347H236.358V189.799H233.839V191.493H236.688V193H231.958V185.278H236.688V186.785H233.839ZM248.536 185.278L246.523 193H244.246L243.014 187.918L241.738 193H239.461L237.503 185.278H239.516L240.627 190.899L242.002 185.278H244.07L245.39 190.899L246.512 185.278H248.536ZM260.555 185.278V193H258.674V188.369L256.947 193H255.429L253.691 188.358V193H251.81V185.278H254.032L256.199 190.624L258.344 185.278H260.555ZM265.56 193.077C264.834 193.077 264.166 192.908 263.558 192.571C262.956 192.234 262.476 191.764 262.117 191.163C261.765 190.554 261.589 189.872 261.589 189.117C261.589 188.362 261.765 187.683 262.117 187.082C262.476 186.481 262.956 186.011 263.558 185.674C264.166 185.337 264.834 185.168 265.56 185.168C266.286 185.168 266.949 185.337 267.551 185.674C268.159 186.011 268.636 186.481 268.981 187.082C269.333 187.683 269.509 188.362 269.509 189.117C269.509 189.872 269.333 190.554 268.981 191.163C268.629 191.764 268.152 192.234 267.551 192.571C266.949 192.908 266.286 193.077 265.56 193.077ZM265.56 191.361C266.176 191.361 266.667 191.156 267.034 190.745C267.408 190.334 267.595 189.792 267.595 189.117C267.595 188.435 267.408 187.892 267.034 187.489C266.667 187.078 266.176 186.873 265.56 186.873C264.936 186.873 264.438 187.075 264.064 187.478C263.697 187.881 263.514 188.428 263.514 189.117C263.514 189.799 263.697 190.345 264.064 190.756C264.438 191.159 264.936 191.361 265.56 191.361ZM274.493 193L272.887 190.085H272.436V193H270.555V185.278H273.712C274.321 185.278 274.838 185.384 275.263 185.597C275.696 185.81 276.018 186.103 276.231 186.477C276.444 186.844 276.55 187.254 276.55 187.709C276.55 188.222 276.403 188.681 276.11 189.084C275.824 189.487 275.399 189.773 274.834 189.942L276.616 193H274.493ZM272.436 188.754H273.602C273.947 188.754 274.203 188.67 274.372 188.501C274.548 188.332 274.636 188.094 274.636 187.786C274.636 187.493 274.548 187.262 274.372 187.093C274.203 186.924 273.947 186.84 273.602 186.84H272.436V188.754ZM279.612 186.785V188.347H282.131V189.799H279.612V191.493H282.461V193H277.731V185.278H282.461V186.785H279.612Z" fill="#666687"/>
<g clip-path="url(#clip2_185_3878)">
<path d="M0 124.5H303" stroke="#CCCCCC" stroke-dasharray="3 3"/>
<path d="M0 83H303" stroke="#CCCCCC" stroke-dasharray="3 3"/>
<path d="M0 41.5H303" stroke="#CCCCCC" stroke-dasharray="3 3"/>
<path d="M0 0H303" stroke="#CCCCCC" stroke-dasharray="3 3"/>
<path d="M0 166H303" stroke="#CCCCCC" stroke-dasharray="3 3"/>
<path d="M60.6 0V166" stroke="#CCCCCC" stroke-dasharray="3 3"/>
<path d="M121.2 0V166" stroke="#CCCCCC" stroke-dasharray="3 3"/>
<path d="M181.8 0V166" stroke="#CCCCCC" stroke-dasharray="3 3"/>
<path d="M242.4 0V166" stroke="#CCCCCC" stroke-dasharray="3 3"/>
<path d="M303 0V166" stroke="#CCCCCC" stroke-dasharray="3 3"/>
<path d="M0 0V166" stroke="#CCCCCC" stroke-dasharray="3 3"/>
<path d="M0 149.4C20.2 137.872 40.4 126.344 60.6 110.667C80.8 94.9889 101 55.3333 121.2 55.3333C141.4 55.3333 161.6 83 181.8 83C202 83 222.2 55.3333 242.4 41.5C262.6 27.6667 282.8 13.8333 303 0" stroke="#00A1E4"/>
<path d="M0 99.6C20.2 113.572 40.4 127.543 60.6 127.543C80.8 127.543 101 114.356 121.2 110.667C141.4 106.978 161.6 108.822 181.8 105.133C202 101.444 222.2 90.3778 242.4 83C262.6 75.6223 282.8 68.2445 303 60.8667" stroke="#FF6250"/>
</g>
<rect y="235" width="303" height="235" fill="white"/>
<path d="M19.472 420.705V426.431C19.472 426.963 19.5933 427.374 19.836 427.663C20.088 427.953 20.466 428.097 20.97 428.097C21.474 428.097 21.852 427.953 22.104 427.663C22.3653 427.365 22.496 426.954 22.496 426.431V420.705H25.24V426.431C25.24 427.337 25.0487 428.111 24.666 428.755C24.2833 429.39 23.7607 429.871 23.098 430.197C22.4447 430.515 21.7167 430.673 20.914 430.673C20.1113 430.673 19.3927 430.515 18.758 430.197C18.1327 429.871 17.638 429.39 17.274 428.755C16.9193 428.121 16.742 427.346 16.742 426.431V420.705H19.472ZM30.0968 430.673C29.3875 430.673 28.7528 430.557 28.1928 430.323C27.6421 430.081 27.2035 429.754 26.8768 429.343C26.5595 428.923 26.3821 428.452 26.3448 427.929H29.0048C29.0421 428.181 29.1588 428.377 29.3548 428.517C29.5508 428.657 29.7935 428.727 30.0828 428.727C30.3068 428.727 30.4841 428.681 30.6148 428.587C30.7455 428.494 30.8108 428.373 30.8108 428.223C30.8108 428.027 30.7035 427.883 30.4888 427.789C30.2741 427.696 29.9195 427.593 29.4248 427.481C28.8648 427.369 28.3981 427.243 28.0248 427.103C27.6515 426.963 27.3248 426.735 27.0448 426.417C26.7741 426.1 26.6388 425.671 26.6388 425.129C26.6388 424.663 26.7648 424.243 27.0168 423.869C27.2688 423.487 27.6375 423.183 28.1228 422.959C28.6175 422.735 29.2101 422.623 29.9008 422.623C30.9275 422.623 31.7348 422.875 32.3228 423.379C32.9108 423.883 33.2515 424.546 33.3448 425.367H30.8668C30.8201 425.115 30.7081 424.924 30.5308 424.793C30.3628 424.653 30.1341 424.583 29.8448 424.583C29.6208 424.583 29.4481 424.625 29.3268 424.709C29.2148 424.793 29.1588 424.91 29.1588 425.059C29.1588 425.246 29.2661 425.391 29.4808 425.493C29.6955 425.587 30.0408 425.685 30.5168 425.787C31.0861 425.909 31.5575 426.044 31.9308 426.193C32.3135 426.343 32.6448 426.585 32.9248 426.921C33.2141 427.248 33.3588 427.696 33.3588 428.265C33.3588 428.723 33.2235 429.133 32.9528 429.497C32.6915 429.861 32.3135 430.151 31.8188 430.365C31.3335 430.571 30.7595 430.673 30.0968 430.673ZM42.2118 426.557C42.2118 426.772 42.1978 426.987 42.1698 427.201H36.9758C37.0038 427.631 37.1205 427.953 37.3258 428.167C37.5405 428.373 37.8112 428.475 38.1378 428.475C38.5952 428.475 38.9218 428.27 39.1178 427.859H42.0438C41.9225 428.401 41.6845 428.886 41.3298 429.315C40.9845 429.735 40.5458 430.067 40.0138 430.309C39.4818 430.552 38.8938 430.673 38.2498 430.673C37.4752 430.673 36.7845 430.51 36.1778 430.183C35.5805 429.857 35.1092 429.39 34.7638 428.783C34.4278 428.177 34.2598 427.463 34.2598 426.641C34.2598 425.82 34.4278 425.111 34.7638 424.513C35.0998 423.907 35.5665 423.44 36.1638 423.113C36.7705 422.787 37.4658 422.623 38.2498 422.623C39.0245 422.623 39.7105 422.782 40.3078 423.099C40.9052 423.417 41.3718 423.874 41.7078 424.471C42.0438 425.059 42.2118 425.755 42.2118 426.557ZM39.4118 425.871C39.4118 425.535 39.2998 425.274 39.0758 425.087C38.8518 424.891 38.5718 424.793 38.2358 424.793C37.8998 424.793 37.6245 424.887 37.4098 425.073C37.1952 425.251 37.0552 425.517 36.9898 425.871H39.4118ZM46.0788 424.107C46.3868 423.659 46.7601 423.305 47.1988 423.043C47.6374 422.782 48.1088 422.651 48.6128 422.651V425.577H47.8428C47.2454 425.577 46.8021 425.694 46.5128 425.927C46.2234 426.161 46.0788 426.567 46.0788 427.145V430.575H43.3348V422.721H46.0788V424.107ZM59.7802 426.557C59.7802 426.772 59.7662 426.987 59.7382 427.201H54.5442C54.5722 427.631 54.6889 427.953 54.8942 428.167C55.1089 428.373 55.3795 428.475 55.7062 428.475C56.1635 428.475 56.4902 428.27 56.6862 427.859H59.6122C59.4909 428.401 59.2529 428.886 58.8982 429.315C58.5529 429.735 58.1142 430.067 57.5822 430.309C57.0502 430.552 56.4622 430.673 55.8182 430.673C55.0435 430.673 54.3529 430.51 53.7462 430.183C53.1489 429.857 52.6775 429.39 52.3322 428.783C51.9962 428.177 51.8282 427.463 51.8282 426.641C51.8282 425.82 51.9962 425.111 52.3322 424.513C52.6682 423.907 53.1349 423.44 53.7322 423.113C54.3389 422.787 55.0342 422.623 55.8182 422.623C56.5929 422.623 57.2789 422.782 57.8762 423.099C58.4735 423.417 58.9402 423.874 59.2762 424.471C59.6122 425.059 59.7802 425.755 59.7802 426.557ZM56.9802 425.871C56.9802 425.535 56.8682 425.274 56.6442 425.087C56.4202 424.891 56.1402 424.793 55.8042 424.793C55.4682 424.793 55.1929 424.887 54.9782 425.073C54.7635 425.251 54.6235 425.517 54.5582 425.871H56.9802ZM66.0411 422.651C66.9465 422.651 67.6651 422.955 68.1971 423.561C68.7291 424.159 68.9951 424.971 68.9951 425.997V430.575H66.2511V426.361C66.2511 425.913 66.1345 425.563 65.9011 425.311C65.6678 425.05 65.3551 424.919 64.9631 424.919C64.5525 424.919 64.2305 425.05 63.9971 425.311C63.7638 425.563 63.6471 425.913 63.6471 426.361V430.575H60.9031V422.721H63.6471V423.841C63.8898 423.487 64.2165 423.202 64.6271 422.987C65.0378 422.763 65.5091 422.651 66.0411 422.651ZM73.3988 422.623C73.9308 422.623 74.3928 422.731 74.7848 422.945C75.1861 423.16 75.4941 423.449 75.7088 423.813V422.721H78.4528V430.491C78.4528 431.229 78.3128 431.891 78.0328 432.479C77.7528 433.077 77.3141 433.553 76.7168 433.907C76.1288 434.262 75.3821 434.439 74.4768 434.439C73.2635 434.439 72.2928 434.155 71.5648 433.585C70.8368 433.016 70.4215 432.241 70.3188 431.261H73.0208C73.0768 431.513 73.2168 431.709 73.4408 431.849C73.6648 431.989 73.9541 432.059 74.3088 432.059C75.2421 432.059 75.7088 431.537 75.7088 430.491V429.483C75.4941 429.847 75.1861 430.137 74.7848 430.351C74.3928 430.566 73.9308 430.673 73.3988 430.673C72.7735 430.673 72.2041 430.51 71.6908 430.183C71.1868 429.857 70.7855 429.39 70.4868 428.783C70.1975 428.167 70.0528 427.453 70.0528 426.641C70.0528 425.829 70.1975 425.12 70.4868 424.513C70.7855 423.907 71.1868 423.44 71.6908 423.113C72.2041 422.787 72.7735 422.623 73.3988 422.623ZM75.7088 426.641C75.7088 426.137 75.5688 425.741 75.2888 425.451C75.0181 425.162 74.6821 425.017 74.2808 425.017C73.8701 425.017 73.5295 425.162 73.2588 425.451C72.9881 425.731 72.8528 426.128 72.8528 426.641C72.8528 427.145 72.9881 427.547 73.2588 427.845C73.5295 428.135 73.8701 428.279 74.2808 428.279C74.6821 428.279 75.0181 428.135 75.2888 427.845C75.5688 427.556 75.7088 427.155 75.7088 426.641ZM79.5684 426.641C79.5684 425.829 79.7131 425.12 80.0024 424.513C80.3011 423.907 80.7024 423.44 81.2064 423.113C81.7198 422.787 82.2891 422.623 82.9144 422.623C83.4558 422.623 83.9224 422.731 84.3144 422.945C84.7064 423.16 85.0098 423.449 85.2244 423.813V422.721H87.9684V430.575H85.2244V429.483C85.0098 429.847 84.7018 430.137 84.3004 430.351C83.9084 430.566 83.4464 430.673 82.9144 430.673C82.2891 430.673 81.7198 430.51 81.2064 430.183C80.7024 429.857 80.3011 429.39 80.0024 428.783C79.7131 428.167 79.5684 427.453 79.5684 426.641ZM85.2244 426.641C85.2244 426.137 85.0844 425.741 84.8044 425.451C84.5338 425.162 84.1978 425.017 83.7964 425.017C83.3858 425.017 83.0451 425.162 82.7744 425.451C82.5038 425.731 82.3684 426.128 82.3684 426.641C82.3684 427.145 82.5038 427.547 82.7744 427.845C83.0451 428.135 83.3858 428.279 83.7964 428.279C84.1978 428.279 84.5338 428.135 84.8044 427.845C85.0844 427.556 85.2244 427.155 85.2244 426.641ZM92.43 422.623C92.962 422.623 93.424 422.731 93.816 422.945C94.2174 423.16 94.5254 423.449 94.74 423.813V422.721H97.484V430.491C97.484 431.229 97.344 431.891 97.064 432.479C96.784 433.077 96.3454 433.553 95.748 433.907C95.16 434.262 94.4134 434.439 93.508 434.439C92.2947 434.439 91.324 434.155 90.596 433.585C89.868 433.016 89.4527 432.241 89.35 431.261H92.052C92.108 431.513 92.248 431.709 92.472 431.849C92.696 431.989 92.9854 432.059 93.34 432.059C94.2734 432.059 94.74 431.537 94.74 430.491V429.483C94.5254 429.847 94.2174 430.137 93.816 430.351C93.424 430.566 92.962 430.673 92.43 430.673C91.8047 430.673 91.2354 430.51 90.722 430.183C90.218 429.857 89.8167 429.39 89.518 428.783C89.2287 428.167 89.084 427.453 89.084 426.641C89.084 425.829 89.2287 425.12 89.518 424.513C89.8167 423.907 90.218 423.44 90.722 423.113C91.2354 422.787 91.8047 422.623 92.43 422.623ZM94.74 426.641C94.74 426.137 94.6 425.741 94.32 425.451C94.0494 425.162 93.7134 425.017 93.312 425.017C92.9014 425.017 92.5607 425.162 92.29 425.451C92.0194 425.731 91.884 426.128 91.884 426.641C91.884 427.145 92.0194 427.547 92.29 427.845C92.5607 428.135 92.9014 428.279 93.312 428.279C93.7134 428.279 94.0494 428.135 94.32 427.845C94.6 427.556 94.74 427.155 94.74 426.641ZM106.552 426.557C106.552 426.772 106.538 426.987 106.51 427.201H101.316C101.344 427.631 101.46 427.953 101.666 428.167C101.88 428.373 102.151 428.475 102.478 428.475C102.935 428.475 103.262 428.27 103.458 427.859H106.384C106.262 428.401 106.024 428.886 105.67 429.315C105.324 429.735 104.886 430.067 104.354 430.309C103.822 430.552 103.234 430.673 102.59 430.673C101.815 430.673 101.124 430.51 100.518 430.183C99.9203 429.857 99.449 429.39 99.1037 428.783C98.7677 428.177 98.5997 427.463 98.5997 426.641C98.5997 425.82 98.7677 425.111 99.1037 424.513C99.4397 423.907 99.9063 423.44 100.504 423.113C101.11 422.787 101.806 422.623 102.59 422.623C103.364 422.623 104.05 422.782 104.648 423.099C105.245 423.417 105.712 423.874 106.048 424.471C106.384 425.059 106.552 425.755 106.552 426.557ZM103.752 425.871C103.752 425.535 103.64 425.274 103.416 425.087C103.192 424.891 102.912 424.793 102.576 424.793C102.24 424.793 101.964 424.887 101.75 425.073C101.535 425.251 101.395 425.517 101.33 425.871H103.752ZM117.937 422.651C118.926 422.651 119.701 422.95 120.261 423.547C120.83 424.145 121.115 424.961 121.115 425.997V430.575H118.371V426.361C118.371 425.941 118.254 425.615 118.021 425.381C117.787 425.148 117.47 425.031 117.069 425.031C116.667 425.031 116.35 425.148 116.117 425.381C115.883 425.615 115.767 425.941 115.767 426.361V430.575H113.023V426.361C113.023 425.941 112.906 425.615 112.673 425.381C112.449 425.148 112.136 425.031 111.735 425.031C111.324 425.031 111.002 425.148 110.769 425.381C110.535 425.615 110.419 425.941 110.419 426.361V430.575H107.675V422.721H110.419V423.757C110.661 423.421 110.974 423.155 111.357 422.959C111.749 422.754 112.197 422.651 112.701 422.651C113.279 422.651 113.793 422.777 114.241 423.029C114.698 423.281 115.057 423.636 115.319 424.093C115.599 423.664 115.967 423.319 116.425 423.057C116.882 422.787 117.386 422.651 117.937 422.651ZM130.122 426.557C130.122 426.772 130.108 426.987 130.08 427.201H124.886C124.914 427.631 125.031 427.953 125.236 428.167C125.451 428.373 125.721 428.475 126.048 428.475C126.505 428.475 126.832 428.27 127.028 427.859H129.954C129.833 428.401 129.595 428.886 129.24 429.315C128.895 429.735 128.456 430.067 127.924 430.309C127.392 430.552 126.804 430.673 126.16 430.673C125.385 430.673 124.695 430.51 124.088 430.183C123.491 429.857 123.019 429.39 122.674 428.783C122.338 428.177 122.17 427.463 122.17 426.641C122.17 425.82 122.338 425.111 122.674 424.513C123.01 423.907 123.477 423.44 124.074 423.113C124.681 422.787 125.376 422.623 126.16 422.623C126.935 422.623 127.621 422.782 128.218 423.099C128.815 423.417 129.282 423.874 129.618 424.471C129.954 425.059 130.122 425.755 130.122 426.557ZM127.322 425.871C127.322 425.535 127.21 425.274 126.986 425.087C126.762 424.891 126.482 424.793 126.146 424.793C125.81 424.793 125.535 424.887 125.32 425.073C125.105 425.251 124.965 425.517 124.9 425.871H127.322ZM136.383 422.651C137.288 422.651 138.007 422.955 138.539 423.561C139.071 424.159 139.337 424.971 139.337 425.997V430.575H136.593V426.361C136.593 425.913 136.476 425.563 136.243 425.311C136.01 425.05 135.697 424.919 135.305 424.919C134.894 424.919 134.572 425.05 134.339 425.311C134.106 425.563 133.989 425.913 133.989 426.361V430.575H131.245V422.721H133.989V423.841C134.232 423.487 134.558 423.202 134.969 422.987C135.38 422.763 135.851 422.651 136.383 422.651ZM145.477 428.237V430.575H144.287C142.28 430.575 141.277 429.581 141.277 427.593V425.003H140.311V422.721H141.277V420.817H144.035V422.721H145.463V425.003H144.035V427.635C144.035 427.85 144.081 428.004 144.175 428.097C144.277 428.191 144.445 428.237 144.679 428.237H145.477Z" fill="#4A4A6A"/>
<path d="M0 241.4C0 239.16 0 238.04 0.435974 237.184C0.819467 236.431 1.43139 235.819 2.18404 235.436C3.03969 235 4.15979 235 6.4 235H296.6C298.84 235 299.96 235 300.816 235.436C301.569 235.819 302.181 236.431 302.564 237.184C303 238.04 303 239.16 303 241.4V400H0V241.4Z" fill="#F6F6F9"/>
<rect y="400.165" width="303" height="1.10849" fill="#F6F6F9"/>
<rect x="215" y="416" width="72" height="16" rx="2" fill="#EAEAEF"/>
<path d="M227.928 420.278L225.189 428H222.835L220.096 420.278H222.098L224.012 426.108L225.937 420.278H227.928ZM230.595 420.278V428H228.714V420.278H230.595ZM233.839 421.785V423.347H236.358V424.799H233.839V426.493H236.688V428H231.958V420.278H236.688V421.785H233.839ZM248.536 420.278L246.523 428H244.246L243.014 422.918L241.738 428H239.461L237.503 420.278H239.516L240.627 425.899L242.002 420.278H244.07L245.39 425.899L246.512 420.278H248.536ZM260.555 420.278V428H258.674V423.369L256.947 428H255.429L253.691 423.358V428H251.81V420.278H254.032L256.199 425.624L258.344 420.278H260.555ZM265.56 428.077C264.834 428.077 264.166 427.908 263.558 427.571C262.956 427.234 262.476 426.764 262.117 426.163C261.765 425.554 261.589 424.872 261.589 424.117C261.589 423.362 261.765 422.683 262.117 422.082C262.476 421.481 262.956 421.011 263.558 420.674C264.166 420.337 264.834 420.168 265.56 420.168C266.286 420.168 266.949 420.337 267.551 420.674C268.159 421.011 268.636 421.481 268.981 422.082C269.333 422.683 269.509 423.362 269.509 424.117C269.509 424.872 269.333 425.554 268.981 426.163C268.629 426.764 268.152 427.234 267.551 427.571C266.949 427.908 266.286 428.077 265.56 428.077ZM265.56 426.361C266.176 426.361 266.667 426.156 267.034 425.745C267.408 425.334 267.595 424.792 267.595 424.117C267.595 423.435 267.408 422.892 267.034 422.489C266.667 422.078 266.176 421.873 265.56 421.873C264.936 421.873 264.438 422.075 264.064 422.478C263.697 422.881 263.514 423.428 263.514 424.117C263.514 424.799 263.697 425.345 264.064 425.756C264.438 426.159 264.936 426.361 265.56 426.361ZM274.493 428L272.887 425.085H272.436V428H270.555V420.278H273.712C274.321 420.278 274.838 420.384 275.263 420.597C275.696 420.81 276.018 421.103 276.231 421.477C276.444 421.844 276.55 422.254 276.55 422.709C276.55 423.222 276.403 423.681 276.11 424.084C275.824 424.487 275.399 424.773 274.834 424.942L276.616 428H274.493ZM272.436 423.754H273.602C273.947 423.754 274.203 423.67 274.372 423.501C274.548 423.332 274.636 423.094 274.636 422.786C274.636 422.493 274.548 422.262 274.372 422.093C274.203 421.924 273.947 421.84 273.602 421.84H272.436V423.754ZM279.612 421.785V423.347H282.131V424.799H279.612V426.493H282.461V428H277.731V420.278H282.461V421.785H279.612Z" fill="#666687"/>
<g clip-path="url(#clip3_185_3878)">
<path d="M0 392C24.6667 386.444 49.3333 380.889 74 373.333C98.6667 365.778 123.333 346.667 148 346.667C172.667 346.667 197.333 372.267 222 372.267C246.667 372.267 271.333 347.6 296 340C320.667 332.4 345.333 329.533 370 326.667V400C345.333 400 320.667 400 296 400C271.333 400 246.667 400 222 400C197.333 400 172.667 400 148 400C123.333 400 98.6667 400 74 400C49.3333 400 24.6667 400 0 400V392Z" fill="#B7E9FF" fill-opacity="0.6"/>
<path d="M0 392C24.6667 386.444 49.3333 380.889 74 373.333C98.6667 365.778 123.333 346.667 148 346.667C172.667 346.667 197.333 372.267 222 372.267C246.667 372.267 271.333 347.6 296 340C320.667 332.4 345.333 329.533 370 326.667" stroke="#00A1E4"/>
</g>
<defs>
<clipPath id="clip0_185_3878">
<rect width="303" height="161" fill="white" transform="translate(303 239)"/>
</clipPath>
<clipPath id="clip1_185_3878">
<rect width="303" height="111" fill="white" transform="translate(303 55)"/>
</clipPath>
<clipPath id="clip2_185_3878">
<rect width="303" height="166" fill="white"/>
</clipPath>
<clipPath id="clip3_185_3878">
<rect width="303" height="80" fill="white" transform="translate(0 320)"/>
</clipPath>
</defs>
</svg>
