<svg width="32" height="32" viewBox="0 0 32 32" fill="none" xmlns="http://www.w3.org/2000/svg">
<rect y="0.615479" width="32" height="30.7692" rx="4" fill="#4945FF"/>
<path d="M15.7333 8.30786C16.0762 8.30786 16.4113 8.41166 16.6963 8.60615C16.9814 8.80063 17.2035 9.07705 17.3347 9.40046C17.4659 9.72387 17.5002 10.0797 17.4334 10.4231C17.3665 10.7664 17.2014 11.0818 16.959 11.3293C16.7166 11.5768 16.4077 11.7454 16.0715 11.8137C15.7353 11.882 15.3867 11.8469 15.07 11.713C14.7533 11.579 14.4826 11.3521 14.2921 11.0611C14.1017 10.77 14 10.4278 14 10.0778C14 9.60836 14.1826 9.15818 14.5077 8.82626C14.8327 8.49433 15.2736 8.30786 15.7333 8.30786ZM20 23.6925H12V21.5141H14.9333V15.5237H12.8V13.3453H17.0667V21.5141H20V23.6925Z" fill="white"/>
</svg>
